<svg width="331" height="48" viewBox="0 0 331 48" fill="none" xmlns="http://www.w3.org/2000/svg">
<path d="M64.8601 15.7865H62.558V19.2988C62.558 19.801 62.4395 20.1819 62.2025 20.4414C61.9655 20.701 61.6665 20.8307 61.3054 20.8307C60.9273 20.8307 60.6227 20.7038 60.3913 20.4499C60.16 20.1903 60.0443 19.8123 60.0443 19.3158V9.75195C60.0443 9.199 60.1713 8.80404 60.4252 8.56706C60.6791 8.33008 61.0825 8.21159 61.6355 8.21159H64.8601C65.8136 8.21159 66.5471 8.28494 67.0606 8.43164C67.5684 8.5727 68.0057 8.80686 68.3724 9.13411C68.7448 9.46137 69.0269 9.86198 69.2188 10.3359C69.4106 10.8099 69.5066 11.3431 69.5066 11.9355C69.5066 13.1994 69.1172 14.1586 68.3386 14.8132C67.5599 15.462 66.4004 15.7865 64.8601 15.7865ZM64.2507 10.099H62.558V13.8906H64.2507C64.8431 13.8906 65.3368 13.8286 65.7318 13.7044C66.1324 13.5803 66.4371 13.3772 66.6459 13.0951C66.8546 12.8129 66.959 12.4434 66.959 11.9863C66.959 11.439 66.7982 10.9933 66.4766 10.6491C66.1155 10.2823 65.3735 10.099 64.2507 10.099Z" fill="white"/>
<path d="M76.6244 19.5273C76.0658 19.9618 75.5241 20.2891 74.9994 20.5091C74.4803 20.7235 73.8963 20.8307 73.2474 20.8307C72.655 20.8307 72.1331 20.7151 71.6817 20.4837C71.2359 20.2467 70.8918 19.928 70.6491 19.5273C70.4065 19.1267 70.2852 18.6923 70.2852 18.224C70.2852 17.592 70.4855 17.0532 70.8861 16.6074C71.2867 16.1617 71.8368 15.8626 72.5365 15.7103C72.6832 15.6764 73.0471 15.6003 73.6283 15.4818C74.2095 15.3633 74.706 15.2561 75.1179 15.1602C75.5354 15.0586 75.9868 14.9373 76.472 14.7962C76.4438 14.1868 76.3197 13.7411 76.0996 13.459C75.8852 13.1712 75.4367 13.0273 74.7539 13.0273C74.1671 13.0273 73.7242 13.1092 73.4252 13.2728C73.1318 13.4364 72.8779 13.6819 72.6635 14.0091C72.4547 14.3364 72.3052 14.5536 72.2149 14.6608C72.1302 14.7624 71.9441 14.8132 71.6563 14.8132C71.3967 14.8132 71.171 14.7313 70.9792 14.5677C70.793 14.3984 70.6999 14.184 70.6999 13.9245C70.6999 13.5182 70.8438 13.1233 71.1316 12.7396C71.4193 12.3559 71.8679 12.0399 72.4773 11.7917C73.0866 11.5434 73.8455 11.4193 74.7539 11.4193C75.7696 11.4193 76.568 11.5406 77.1491 11.7832C77.7303 12.0202 78.1394 12.3982 78.3763 12.9173C78.619 13.4364 78.7403 14.1248 78.7403 14.9824C78.7403 15.5241 78.7375 15.9839 78.7318 16.362C78.7318 16.74 78.729 17.1604 78.7233 17.623C78.7233 18.0575 78.7939 18.5117 78.9349 18.9857C79.0816 19.454 79.155 19.7559 79.155 19.8913C79.155 20.1283 79.0421 20.3455 78.8164 20.543C78.5964 20.7348 78.3453 20.8307 78.0632 20.8307C77.8262 20.8307 77.5921 20.7207 77.3607 20.5007C77.1294 20.275 76.8839 19.9505 76.6244 19.5273ZM76.472 16.1842C76.1335 16.3084 75.6398 16.441 74.9909 16.582C74.3477 16.7174 73.9019 16.819 73.6537 16.8867C73.4054 16.9488 73.1684 17.0757 72.9427 17.2676C72.7171 17.4538 72.6042 17.7161 72.6042 18.0547C72.6042 18.4045 72.7368 18.7036 73.002 18.9518C73.2672 19.1944 73.6142 19.3158 74.043 19.3158C74.5 19.3158 74.9204 19.217 75.3041 19.0195C75.6934 18.8164 75.9783 18.5569 76.1589 18.2409C76.3677 17.8911 76.472 17.3155 76.472 16.5143V16.1842Z" fill="white"/>
<path d="M87.5424 16.7005H83.0228C83.0285 17.2253 83.1329 17.6879 83.336 18.0885C83.5447 18.4891 83.8184 18.791 84.1569 18.9941C84.5011 19.1973 84.8792 19.2988 85.2911 19.2988C85.5675 19.2988 85.8186 19.2678 86.0443 19.2057C86.2756 19.138 86.4985 19.0365 86.7129 18.901C86.9273 18.76 87.1248 18.6105 87.3054 18.4525C87.4859 18.2945 87.7201 18.0801 88.0079 17.8092C88.1263 17.7077 88.2956 17.6569 88.5157 17.6569C88.7526 17.6569 88.9445 17.7218 89.0912 17.8516C89.2379 17.9813 89.3112 18.1647 89.3112 18.4017C89.3112 18.6105 89.2294 18.8559 89.0658 19.138C88.9022 19.4145 88.6539 19.6825 88.321 19.9421C87.9937 20.196 87.579 20.4076 87.0769 20.5768C86.5803 20.7461 86.0076 20.8307 85.3588 20.8307C83.8748 20.8307 82.721 20.4076 81.8972 19.5612C81.0734 18.7148 80.6615 17.5666 80.6615 16.1165C80.6615 15.4338 80.7631 14.8019 80.9662 14.2207C81.1693 13.6339 81.4655 13.1317 81.8549 12.7142C82.2442 12.2967 82.7238 11.9779 83.2937 11.7578C83.8635 11.5321 84.4955 11.4193 85.1895 11.4193C86.0923 11.4193 86.8653 11.6111 87.5085 11.9948C88.1574 12.3728 88.6426 12.8637 88.9642 13.4674C89.2858 14.0712 89.4467 14.6862 89.4467 15.3125C89.4467 15.8937 89.2802 16.2717 88.9473 16.4466C88.6144 16.6159 88.1461 16.7005 87.5424 16.7005ZM83.0228 15.3887H87.2123C87.1559 14.5987 86.9414 14.0091 86.569 13.6198C86.2023 13.2248 85.7171 13.0273 85.1133 13.0273C84.5378 13.0273 84.0638 13.2276 83.6914 13.6283C83.3247 14.0232 83.1018 14.61 83.0228 15.3887Z" fill="white"/>
<path d="M97.7325 19.5104V19.2819C97.4221 19.6374 97.1146 19.928 96.8099 20.1536C96.5109 20.3737 96.1836 20.5401 95.8282 20.653C95.4783 20.7715 95.0947 20.8307 94.6771 20.8307C94.1242 20.8307 93.6107 20.7151 93.1368 20.4837C92.6684 20.2467 92.2622 19.911 91.918 19.4766C91.5738 19.0421 91.3115 18.5315 91.1309 17.9447C90.956 17.3579 90.8685 16.7231 90.8685 16.0404C90.8685 14.5959 91.2212 13.4703 91.9265 12.6634C92.6318 11.8566 93.5599 11.4531 94.711 11.4531C95.3768 11.4531 95.9382 11.5688 96.3952 11.8001C96.8523 12.0258 97.298 12.3757 97.7325 12.8496V9.4388C97.7325 8.96484 97.8256 8.60655 98.0118 8.36393C98.2036 8.12131 98.4744 8 98.8243 8C99.1741 8 99.4421 8.11285 99.6283 8.33854C99.8201 8.55859 99.9161 8.88585 99.9161 9.32031V19.5104C99.9161 19.9505 99.8145 20.2806 99.6114 20.5007C99.4082 20.7207 99.1459 20.8307 98.8243 20.8307C98.5083 20.8307 98.2459 20.7179 98.0371 20.4922C97.834 20.2609 97.7325 19.9336 97.7325 19.5104ZM93.1875 16.1165C93.1875 16.7428 93.2835 17.276 93.4753 17.7161C93.6728 18.1563 93.9408 18.4891 94.2793 18.7148C94.6179 18.9349 94.9875 19.0449 95.3881 19.0449C95.7943 19.0449 96.1639 18.9405 96.4968 18.7318C96.8353 18.5174 97.1033 18.1929 97.3008 17.7585C97.5039 17.3184 97.6055 16.7711 97.6055 16.1165C97.6055 15.5015 97.5039 14.974 97.3008 14.5339C97.1033 14.0881 96.8325 13.7496 96.4883 13.5182C96.1498 13.2813 95.7774 13.1628 95.3711 13.1628C94.948 13.1628 94.5699 13.2841 94.237 13.5267C93.9041 13.7637 93.6446 14.1079 93.4584 14.5592C93.2778 15.005 93.1875 15.5241 93.1875 16.1165Z" fill="white"/>
<path d="M104.546 12.748V19.4258C104.546 19.8885 104.436 20.2383 104.216 20.4753C103.995 20.7122 103.716 20.8307 103.378 20.8307C103.039 20.8307 102.763 20.7094 102.548 20.4668C102.339 20.2242 102.235 19.8772 102.235 19.4258V12.8158C102.235 12.3587 102.339 12.0145 102.548 11.7832C102.763 11.5519 103.039 11.4362 103.378 11.4362C103.716 11.4362 103.995 11.5519 104.216 11.7832C104.436 12.0145 104.546 12.3362 104.546 12.748ZM103.403 10.3613C103.081 10.3613 102.805 10.2626 102.574 10.0651C102.348 9.86762 102.235 9.58832 102.235 9.22721C102.235 8.89996 102.351 8.63194 102.582 8.42318C102.819 8.20877 103.093 8.10156 103.403 8.10156C103.702 8.10156 103.967 8.19748 104.199 8.38932C104.43 8.58116 104.546 8.86046 104.546 9.22721C104.546 9.58268 104.433 9.86198 104.207 10.0651C103.981 10.2626 103.713 10.3613 103.403 10.3613Z" fill="white"/>
<path d="M112.781 19.5273C112.222 19.9618 111.68 20.2891 111.156 20.5091C110.637 20.7235 110.053 20.8307 109.404 20.8307C108.811 20.8307 108.289 20.7151 107.838 20.4837C107.392 20.2467 107.048 19.928 106.805 19.5273C106.563 19.1267 106.441 18.6923 106.441 18.224C106.441 17.592 106.642 17.0532 107.042 16.6074C107.443 16.1617 107.993 15.8626 108.693 15.7103C108.839 15.6764 109.203 15.6003 109.785 15.4818C110.366 15.3633 110.862 15.2561 111.274 15.1602C111.692 15.0586 112.143 14.9373 112.628 14.7962C112.6 14.1868 112.476 13.7411 112.256 13.459C112.041 13.1712 111.593 13.0273 110.91 13.0273C110.323 13.0273 109.88 13.1092 109.581 13.2728C109.288 13.4364 109.034 13.6819 108.82 14.0091C108.611 14.3364 108.461 14.5536 108.371 14.6608C108.286 14.7624 108.1 14.8132 107.813 14.8132C107.553 14.8132 107.327 14.7313 107.135 14.5677C106.949 14.3984 106.856 14.184 106.856 13.9245C106.856 13.5182 107 13.1233 107.288 12.7396C107.576 12.3559 108.024 12.0399 108.634 11.7917C109.243 11.5434 110.002 11.4193 110.91 11.4193C111.926 11.4193 112.724 11.5406 113.305 11.7832C113.887 12.0202 114.296 12.3982 114.533 12.9173C114.775 13.4364 114.897 14.1248 114.897 14.9824C114.897 15.5241 114.894 15.9839 114.888 16.362C114.888 16.74 114.885 17.1604 114.88 17.623C114.88 18.0575 114.95 18.5117 115.091 18.9857C115.238 19.454 115.311 19.7559 115.311 19.8913C115.311 20.1283 115.198 20.3455 114.973 20.543C114.753 20.7348 114.502 20.8307 114.219 20.8307C113.982 20.8307 113.748 20.7207 113.517 20.5007C113.286 20.275 113.04 19.9505 112.781 19.5273ZM112.628 16.1842C112.29 16.3084 111.796 16.441 111.147 16.582C110.504 16.7174 110.058 16.819 109.81 16.8867C109.562 16.9488 109.325 17.0757 109.099 17.2676C108.873 17.4538 108.76 17.7161 108.76 18.0547C108.76 18.4045 108.893 18.7036 109.158 18.9518C109.423 19.1944 109.77 19.3158 110.199 19.3158C110.656 19.3158 111.077 19.217 111.46 19.0195C111.85 18.8164 112.135 18.5569 112.315 18.2409C112.524 17.8911 112.628 17.3155 112.628 16.5143V16.1842Z" fill="white"/>
<path d="M116.936 11.6393H117.19V10.2513C117.19 9.87891 117.199 9.58832 117.216 9.37956C117.238 9.16515 117.295 8.98177 117.385 8.82943C117.475 8.67144 117.605 8.54449 117.774 8.44857C117.943 8.34701 118.132 8.29622 118.341 8.29622C118.635 8.29622 118.9 8.40625 119.137 8.6263C119.295 8.773 119.393 8.95356 119.433 9.16797C119.478 9.37674 119.501 9.67578 119.501 10.0651V11.6393H120.347C120.674 11.6393 120.923 11.7183 121.092 11.8763C121.267 12.0286 121.354 12.2261 121.354 12.4688C121.354 12.7791 121.23 12.9963 120.982 13.1204C120.739 13.2446 120.389 13.3066 119.932 13.3066H119.501V17.5553C119.501 17.9164 119.512 18.1957 119.535 18.3932C119.563 18.5851 119.63 18.7431 119.738 18.8672C119.851 18.9857 120.031 19.0449 120.279 19.0449C120.415 19.0449 120.598 19.0224 120.829 18.9772C121.061 18.9264 121.241 18.901 121.371 18.901C121.557 18.901 121.724 18.9772 121.87 19.1296C122.023 19.2763 122.099 19.4596 122.099 19.6797C122.099 20.0521 121.896 20.337 121.49 20.5345C121.083 20.732 120.499 20.8307 119.738 20.8307C119.015 20.8307 118.468 20.7094 118.096 20.4668C117.723 20.2242 117.478 19.8885 117.359 19.4596C117.247 19.0308 117.19 18.4581 117.19 17.7415V13.3066H116.885C116.553 13.3066 116.299 13.2276 116.124 13.0697C115.949 12.9117 115.861 12.7114 115.861 12.4688C115.861 12.2261 115.952 12.0286 116.132 11.8763C116.318 11.7183 116.586 11.6393 116.936 11.6393Z" fill="white"/>
<path d="M125.247 17.4961V19.4258C125.247 19.8941 125.137 20.2467 124.917 20.4837C124.697 20.7151 124.418 20.8307 124.079 20.8307C123.747 20.8307 123.473 20.7122 123.259 20.4753C123.044 20.2383 122.937 19.8885 122.937 19.4258V12.9935C122.937 11.9553 123.312 11.4362 124.063 11.4362C124.446 11.4362 124.723 11.5575 124.892 11.8001C125.061 12.0428 125.154 12.401 125.171 12.875C125.448 12.401 125.73 12.0428 126.018 11.8001C126.311 11.5575 126.7 11.4362 127.186 11.4362C127.671 11.4362 128.142 11.5575 128.599 11.8001C129.056 12.0428 129.285 12.3644 129.285 12.765C129.285 13.0471 129.186 13.2813 128.988 13.4674C128.796 13.648 128.588 13.7383 128.362 13.7383C128.277 13.7383 128.071 13.6875 127.744 13.5859C127.423 13.4787 127.138 13.4251 126.889 13.4251C126.551 13.4251 126.274 13.5154 126.06 13.696C125.846 13.8709 125.679 14.1332 125.561 14.4831C125.442 14.8329 125.36 15.2504 125.315 15.7357C125.27 16.2153 125.247 16.8021 125.247 17.4961Z" fill="white"/>
<path d="M132.865 12.748V19.4258C132.865 19.8885 132.755 20.2383 132.535 20.4753C132.314 20.7122 132.035 20.8307 131.697 20.8307C131.358 20.8307 131.082 20.7094 130.867 20.4668C130.658 20.2242 130.554 19.8772 130.554 19.4258V12.8158C130.554 12.3587 130.658 12.0145 130.867 11.7832C131.082 11.5519 131.358 11.4362 131.697 11.4362C132.035 11.4362 132.314 11.5519 132.535 11.7832C132.755 12.0145 132.865 12.3362 132.865 12.748ZM131.722 10.3613C131.4 10.3613 131.124 10.2626 130.893 10.0651C130.667 9.86762 130.554 9.58832 130.554 9.22721C130.554 8.89996 130.67 8.63194 130.901 8.42318C131.138 8.20877 131.412 8.10156 131.722 8.10156C132.021 8.10156 132.286 8.19748 132.518 8.38932C132.749 8.58116 132.865 8.86046 132.865 9.22721C132.865 9.58268 132.752 9.86198 132.526 10.0651C132.3 10.2626 132.032 10.3613 131.722 10.3613Z" fill="white"/>
<path d="M143.546 17.9701C143.546 18.2578 143.458 18.5653 143.283 18.8926C143.114 19.2198 142.852 19.533 142.496 19.832C142.146 20.1254 141.703 20.3624 141.167 20.543C140.631 20.7235 140.028 20.8138 139.356 20.8138C137.929 20.8138 136.814 20.3991 136.013 19.5697C135.212 18.7346 134.811 17.6174 134.811 16.2181C134.811 15.2702 134.995 14.4323 135.361 13.7044C135.728 12.9766 136.258 12.4151 136.953 12.0202C137.647 11.6196 138.476 11.4193 139.441 11.4193C140.039 11.4193 140.586 11.5067 141.083 11.6816C141.585 11.8566 142.008 12.0822 142.352 12.3587C142.702 12.6352 142.967 12.9314 143.148 13.2474C143.334 13.5577 143.427 13.8483 143.427 14.1191C143.427 14.3956 143.323 14.6298 143.114 14.8216C142.911 15.0135 142.663 15.1094 142.369 15.1094C142.177 15.1094 142.017 15.0614 141.887 14.9655C141.763 14.8639 141.622 14.7031 141.464 14.4831C141.181 14.0543 140.885 13.7326 140.575 13.5182C140.27 13.3038 139.881 13.1966 139.407 13.1966C138.724 13.1966 138.174 13.4646 137.757 14.0007C137.339 14.531 137.13 15.2589 137.13 16.1842C137.13 16.6187 137.184 17.0193 137.291 17.3861C137.398 17.7472 137.553 18.0575 137.757 18.3171C137.96 18.571 138.205 18.7656 138.493 18.901C138.781 19.0308 139.097 19.0957 139.441 19.0957C139.903 19.0957 140.298 18.9885 140.626 18.7741C140.959 18.5597 141.252 18.2324 141.506 17.7923C141.647 17.5328 141.799 17.3296 141.963 17.1829C142.127 17.0362 142.327 16.9629 142.564 16.9629C142.846 16.9629 143.08 17.0701 143.266 17.2845C143.453 17.4989 143.546 17.7274 143.546 17.9701Z" fill="white"/>
<path d="M159.855 8C161.141 8 162.244 8.26237 163.164 8.78711C164.089 9.30621 164.789 10.0482 165.263 11.013C165.737 11.9722 165.974 13.1007 165.974 14.3984C165.974 15.3576 165.844 16.2294 165.585 17.0137C165.325 17.798 164.936 18.4779 164.417 19.0534C163.898 19.6289 163.26 20.069 162.504 20.3737C161.748 20.6784 160.882 20.8307 159.906 20.8307C158.935 20.8307 158.066 20.6756 157.299 20.3652C156.532 20.0493 155.891 19.6063 155.378 19.0365C154.864 18.4666 154.475 17.781 154.21 16.9798C153.95 16.1786 153.82 15.3125 153.82 14.3815C153.82 13.428 153.956 12.5534 154.227 11.7578C154.503 10.9622 154.901 10.2852 155.42 9.72656C155.939 9.16797 156.571 8.74197 157.316 8.44857C158.061 8.14952 158.907 8 159.855 8ZM163.426 14.3815C163.426 13.4731 163.28 12.686 162.986 12.0202C162.693 11.3544 162.273 10.8522 161.725 10.5137C161.184 10.1695 160.56 9.9974 159.855 9.9974C159.353 9.9974 158.887 10.0933 158.458 10.2852C158.035 10.4714 157.668 10.745 157.358 11.1061C157.053 11.4672 156.811 11.9299 156.63 12.4941C156.455 13.0527 156.368 13.6819 156.368 14.3815C156.368 15.0868 156.455 15.7244 156.63 16.2943C156.811 16.8641 157.062 17.3381 157.383 17.7161C157.711 18.0885 158.083 18.3678 158.501 18.554C158.924 18.7402 159.387 18.8333 159.889 18.8333C160.532 18.8333 161.122 18.6725 161.658 18.3509C162.199 18.0293 162.628 17.5328 162.944 16.8613C163.266 16.1899 163.426 15.3633 163.426 14.3815Z" fill="white"/>
<path d="M170.257 17.4961V19.4258C170.257 19.8941 170.147 20.2467 169.926 20.4837C169.706 20.7151 169.427 20.8307 169.089 20.8307C168.756 20.8307 168.482 20.7122 168.268 20.4753C168.053 20.2383 167.946 19.8885 167.946 19.4258V12.9935C167.946 11.9553 168.321 11.4362 169.072 11.4362C169.455 11.4362 169.732 11.5575 169.901 11.8001C170.07 12.0428 170.163 12.401 170.18 12.875C170.457 12.401 170.739 12.0428 171.027 11.8001C171.32 11.5575 171.709 11.4362 172.195 11.4362C172.68 11.4362 173.151 11.5575 173.608 11.8001C174.065 12.0428 174.294 12.3644 174.294 12.765C174.294 13.0471 174.195 13.2813 173.997 13.4674C173.806 13.648 173.597 13.7383 173.371 13.7383C173.286 13.7383 173.081 13.6875 172.753 13.5859C172.432 13.4787 172.147 13.4251 171.898 13.4251C171.56 13.4251 171.283 13.5154 171.069 13.696C170.855 13.8709 170.688 14.1332 170.57 14.4831C170.451 14.8329 170.369 15.2504 170.324 15.7357C170.279 16.2153 170.257 16.8021 170.257 17.4961Z" fill="white"/>
<path d="M175.91 11.6393H176.164V10.2513C176.164 9.87891 176.173 9.58832 176.189 9.37956C176.212 9.16515 176.268 8.98177 176.359 8.82943C176.449 8.67144 176.579 8.54449 176.748 8.44857C176.917 8.34701 177.106 8.29622 177.315 8.29622C177.609 8.29622 177.874 8.40625 178.111 8.6263C178.269 8.773 178.367 8.95356 178.407 9.16797C178.452 9.37674 178.475 9.67578 178.475 10.0651V11.6393H179.321C179.648 11.6393 179.897 11.7183 180.066 11.8763C180.241 12.0286 180.328 12.2261 180.328 12.4688C180.328 12.7791 180.204 12.9963 179.956 13.1204C179.713 13.2446 179.363 13.3066 178.906 13.3066H178.475V17.5553C178.475 17.9164 178.486 18.1957 178.508 18.3932C178.537 18.5851 178.604 18.7431 178.712 18.8672C178.824 18.9857 179.005 19.0449 179.253 19.0449C179.389 19.0449 179.572 19.0224 179.803 18.9772C180.035 18.9264 180.215 18.901 180.345 18.901C180.531 18.901 180.698 18.9772 180.844 19.1296C180.997 19.2763 181.073 19.4596 181.073 19.6797C181.073 20.0521 180.87 20.337 180.464 20.5345C180.057 20.732 179.473 20.8307 178.712 20.8307C177.989 20.8307 177.442 20.7094 177.07 20.4668C176.697 20.2242 176.452 19.8885 176.333 19.4596C176.221 19.0308 176.164 18.4581 176.164 17.7415V13.3066H175.859C175.527 13.3066 175.273 13.2276 175.098 13.0697C174.923 12.9117 174.835 12.7114 174.835 12.4688C174.835 12.2261 174.926 12.0286 175.106 11.8763C175.292 11.7183 175.56 11.6393 175.91 11.6393Z" fill="white"/>
<path d="M184.188 9.40495V12.8327C184.481 12.4941 184.766 12.2261 185.042 12.0286C185.324 11.8312 185.635 11.6845 185.973 11.5885C186.312 11.487 186.676 11.4362 187.065 11.4362C187.652 11.4362 188.171 11.5603 188.622 11.8086C189.079 12.0569 189.438 12.418 189.697 12.8919C189.861 13.1684 189.971 13.4787 190.027 13.8229C190.084 14.1615 190.112 14.5536 190.112 14.9993V19.4258C190.112 19.8885 190.005 20.2383 189.79 20.4753C189.582 20.7122 189.302 20.8307 188.953 20.8307C188.191 20.8307 187.81 20.3624 187.81 19.4258V15.5241C187.81 14.7849 187.7 14.2179 187.48 13.8229C187.26 13.4223 186.842 13.222 186.227 13.222C185.815 13.222 185.443 13.3405 185.11 13.5775C184.783 13.8088 184.537 14.1276 184.374 14.5339C184.25 14.878 184.188 15.4902 184.188 16.3704V19.4258C184.188 19.8828 184.083 20.2326 183.874 20.4753C183.671 20.7122 183.386 20.8307 183.02 20.8307C182.258 20.8307 181.877 20.3624 181.877 19.4258V9.40495C181.877 8.93663 181.976 8.58681 182.173 8.35547C182.376 8.11849 182.658 8 183.02 8C183.386 8 183.671 8.11849 183.874 8.35547C184.083 8.59245 184.188 8.94227 184.188 9.40495Z" fill="white"/>
<path d="M201.055 16.1335C201.055 16.8218 200.948 17.4566 200.734 18.0378C200.519 18.6189 200.209 19.1183 199.803 19.5358C199.397 19.9533 198.911 20.275 198.347 20.5007C197.783 20.7207 197.148 20.8307 196.443 20.8307C195.743 20.8307 195.114 20.7179 194.555 20.4922C193.997 20.2665 193.512 19.9449 193.1 19.5273C192.693 19.1042 192.383 18.6076 192.169 18.0378C191.96 17.4622 191.856 16.8275 191.856 16.1335C191.856 15.4338 191.963 14.7934 192.177 14.2122C192.392 13.6311 192.699 13.1345 193.1 12.7227C193.5 12.3108 193.985 11.9948 194.555 11.7747C195.125 11.549 195.754 11.4362 196.443 11.4362C197.142 11.4362 197.777 11.549 198.347 11.7747C198.917 12.0004 199.405 12.322 199.811 12.7396C200.217 13.1571 200.525 13.6536 200.734 14.2292C200.948 14.8047 201.055 15.4395 201.055 16.1335ZM198.736 16.1335C198.736 15.1912 198.528 14.4577 198.11 13.9329C197.698 13.4082 197.142 13.1458 196.443 13.1458C195.991 13.1458 195.594 13.2643 195.249 13.5013C194.905 13.7326 194.64 14.0768 194.454 14.5339C194.268 14.9909 194.175 15.5241 194.175 16.1335C194.175 16.7372 194.265 17.2648 194.445 17.7161C194.632 18.1675 194.894 18.5145 195.232 18.7572C195.577 18.9941 195.98 19.1126 196.443 19.1126C197.142 19.1126 197.698 18.8503 198.11 18.3255C198.528 17.7951 198.736 17.0645 198.736 16.1335Z" fill="white"/>
<path d="M205.016 12.7311V13.0104C205.451 12.4744 205.902 12.0822 206.37 11.834C206.839 11.5801 207.369 11.4531 207.962 11.4531C208.673 11.4531 209.327 11.6365 209.925 12.0033C210.523 12.37 210.994 12.906 211.339 13.6113C211.688 14.3166 211.863 15.1517 211.863 16.1165C211.863 16.8275 211.762 17.482 211.559 18.0801C211.361 18.6725 211.087 19.1719 210.738 19.5781C210.388 19.9787 209.973 20.2891 209.494 20.5091C209.02 20.7235 208.509 20.8307 207.962 20.8307C207.301 20.8307 206.746 20.6981 206.294 20.4329C205.849 20.1678 205.423 19.7784 205.016 19.265V22.735C205.016 23.7507 204.647 24.2585 203.908 24.2585C203.473 24.2585 203.185 24.1259 203.044 23.8607C202.903 23.6011 202.833 23.2203 202.833 22.7181V12.748C202.833 12.3079 202.929 11.9807 203.12 11.7663C203.312 11.5462 203.575 11.4362 203.908 11.4362C204.235 11.4362 204.5 11.549 204.703 11.7747C204.912 11.9948 205.016 12.3136 205.016 12.7311ZM209.544 16.0911C209.544 15.4818 209.451 14.9599 209.265 14.5254C209.079 14.0853 208.819 13.7496 208.486 13.5182C208.159 13.2813 207.795 13.1628 207.395 13.1628C206.757 13.1628 206.218 13.4138 205.778 13.916C205.344 14.4182 205.126 15.1573 205.126 16.1335C205.126 17.0532 205.344 17.7697 205.778 18.2832C206.212 18.791 206.751 19.0449 207.395 19.0449C207.778 19.0449 208.134 18.9349 208.461 18.7148C208.788 18.4891 209.051 18.1534 209.248 17.7077C209.446 17.2619 209.544 16.7231 209.544 16.0911Z" fill="white"/>
<path d="M219.557 19.5273C218.998 19.9618 218.456 20.2891 217.932 20.5091C217.413 20.7235 216.829 20.8307 216.18 20.8307C215.587 20.8307 215.065 20.7151 214.614 20.4837C214.168 20.2467 213.824 19.928 213.581 19.5273C213.339 19.1267 213.217 18.6923 213.217 18.224C213.217 17.592 213.418 17.0532 213.818 16.6074C214.219 16.1617 214.769 15.8626 215.469 15.7103C215.615 15.6764 215.979 15.6003 216.561 15.4818C217.142 15.3633 217.638 15.2561 218.05 15.1602C218.468 15.0586 218.919 14.9373 219.404 14.7962C219.376 14.1868 219.252 13.7411 219.032 13.459C218.818 13.1712 218.369 13.0273 217.686 13.0273C217.099 13.0273 216.656 13.1092 216.357 13.2728C216.064 13.4364 215.81 13.6819 215.596 14.0091C215.387 14.3364 215.237 14.5536 215.147 14.6608C215.063 14.7624 214.876 14.8132 214.589 14.8132C214.329 14.8132 214.103 14.7313 213.911 14.5677C213.725 14.3984 213.632 14.184 213.632 13.9245C213.632 13.5182 213.776 13.1233 214.064 12.7396C214.352 12.3559 214.8 12.0399 215.41 11.7917C216.019 11.5434 216.778 11.4193 217.686 11.4193C218.702 11.4193 219.5 11.5406 220.081 11.7832C220.663 12.0202 221.072 12.3982 221.309 12.9173C221.551 13.4364 221.673 14.1248 221.673 14.9824C221.673 15.5241 221.67 15.9839 221.664 16.362C221.664 16.74 221.661 17.1604 221.656 17.623C221.656 18.0575 221.726 18.5117 221.867 18.9857C222.014 19.454 222.087 19.7559 222.087 19.8913C222.087 20.1283 221.974 20.3455 221.749 20.543C221.529 20.7348 221.278 20.8307 220.995 20.8307C220.758 20.8307 220.524 20.7207 220.293 20.5007C220.062 20.275 219.816 19.9505 219.557 19.5273ZM219.404 16.1842C219.066 16.3084 218.572 16.441 217.923 16.582C217.28 16.7174 216.834 16.819 216.586 16.8867C216.338 16.9488 216.101 17.0757 215.875 17.2676C215.649 17.4538 215.536 17.7161 215.536 18.0547C215.536 18.4045 215.669 18.7036 215.934 18.9518C216.199 19.1944 216.546 19.3158 216.975 19.3158C217.432 19.3158 217.853 19.217 218.236 19.0195C218.626 18.8164 218.911 18.5569 219.091 18.2409C219.3 17.8911 219.404 17.3155 219.404 16.5143V16.1842Z" fill="white"/>
<path d="M230.475 16.7005H225.955C225.961 17.2253 226.065 17.6879 226.268 18.0885C226.477 18.4891 226.751 18.791 227.089 18.9941C227.433 19.1973 227.811 19.2988 228.223 19.2988C228.5 19.2988 228.751 19.2678 228.977 19.2057C229.208 19.138 229.431 19.0365 229.645 18.901C229.86 18.76 230.057 18.6105 230.238 18.4525C230.418 18.2945 230.652 18.0801 230.94 17.8092C231.059 17.7077 231.228 17.6569 231.448 17.6569C231.685 17.6569 231.877 17.7218 232.023 17.8516C232.17 17.9813 232.244 18.1647 232.244 18.4017C232.244 18.6105 232.162 18.8559 231.998 19.138C231.834 19.4145 231.586 19.6825 231.253 19.9421C230.926 20.196 230.511 20.4076 230.009 20.5768C229.513 20.7461 228.94 20.8307 228.291 20.8307C226.807 20.8307 225.653 20.4076 224.829 19.5612C224.006 18.7148 223.594 17.5666 223.594 16.1165C223.594 15.4338 223.695 14.8019 223.898 14.2207C224.102 13.6339 224.398 13.1317 224.787 12.7142C225.176 12.2967 225.656 11.9779 226.226 11.7578C226.796 11.5321 227.428 11.4193 228.122 11.4193C229.025 11.4193 229.798 11.6111 230.441 11.9948C231.09 12.3728 231.575 12.8637 231.897 13.4674C232.218 14.0712 232.379 14.6862 232.379 15.3125C232.379 15.8937 232.212 16.2717 231.88 16.4466C231.547 16.6159 231.078 16.7005 230.475 16.7005ZM225.955 15.3887H230.145C230.088 14.5987 229.874 14.0091 229.501 13.6198C229.135 13.2248 228.649 13.0273 228.046 13.0273C227.47 13.0273 226.996 13.2276 226.624 13.6283C226.257 14.0232 226.034 14.61 225.955 15.3887Z" fill="white"/>
<path d="M240.665 19.5104V19.2819C240.354 19.6374 240.047 19.928 239.742 20.1536C239.443 20.3737 239.116 20.5401 238.76 20.653C238.411 20.7715 238.027 20.8307 237.609 20.8307C237.056 20.8307 236.543 20.7151 236.069 20.4837C235.601 20.2467 235.194 19.911 234.85 19.4766C234.506 19.0421 234.244 18.5315 234.063 17.9447C233.888 17.3579 233.801 16.7231 233.801 16.0404C233.801 14.5959 234.153 13.4703 234.859 12.6634C235.564 11.8566 236.492 11.4531 237.643 11.4531C238.309 11.4531 238.87 11.5688 239.328 11.8001C239.785 12.0258 240.23 12.3757 240.665 12.8496V9.4388C240.665 8.96484 240.758 8.60655 240.944 8.36393C241.136 8.12131 241.407 8 241.757 8C242.106 8 242.374 8.11285 242.561 8.33854C242.752 8.55859 242.848 8.88585 242.848 9.32031V19.5104C242.848 19.9505 242.747 20.2806 242.544 20.5007C242.341 20.7207 242.078 20.8307 241.757 20.8307C241.441 20.8307 241.178 20.7179 240.969 20.4922C240.766 20.2609 240.665 19.9336 240.665 19.5104ZM236.12 16.1165C236.12 16.7428 236.216 17.276 236.408 17.7161C236.605 18.1563 236.873 18.4891 237.212 18.7148C237.55 18.9349 237.92 19.0449 238.32 19.0449C238.727 19.0449 239.096 18.9405 239.429 18.7318C239.768 18.5174 240.036 18.1929 240.233 17.7585C240.436 17.3184 240.538 16.7711 240.538 16.1165C240.538 15.5015 240.436 14.974 240.233 14.5339C240.036 14.0881 239.765 13.7496 239.421 13.5182C239.082 13.2813 238.71 13.1628 238.303 13.1628C237.88 13.1628 237.502 13.2841 237.169 13.5267C236.836 13.7637 236.577 14.1079 236.391 14.5592C236.21 15.005 236.12 15.5241 236.12 16.1165Z" fill="white"/>
<path d="M247.478 12.748V19.4258C247.478 19.8885 247.368 20.2383 247.148 20.4753C246.928 20.7122 246.648 20.8307 246.31 20.8307C245.971 20.8307 245.695 20.7094 245.48 20.4668C245.272 20.2242 245.167 19.8772 245.167 19.4258V12.8158C245.167 12.3587 245.272 12.0145 245.48 11.7832C245.695 11.5519 245.971 11.4362 246.31 11.4362C246.648 11.4362 246.928 11.5519 247.148 11.7832C247.368 12.0145 247.478 12.3362 247.478 12.748ZM246.335 10.3613C246.014 10.3613 245.737 10.2626 245.506 10.0651C245.28 9.86762 245.167 9.58832 245.167 9.22721C245.167 8.89996 245.283 8.63194 245.514 8.42318C245.751 8.20877 246.025 8.10156 246.335 8.10156C246.634 8.10156 246.9 8.19748 247.131 8.38932C247.362 8.58116 247.478 8.86046 247.478 9.22721C247.478 9.58268 247.365 9.86198 247.139 10.0651C246.914 10.2626 246.646 10.3613 246.335 10.3613Z" fill="white"/>
<path d="M258.159 17.9701C258.159 18.2578 258.071 18.5653 257.897 18.8926C257.727 19.2198 257.465 19.533 257.109 19.832C256.76 20.1254 256.317 20.3624 255.781 20.543C255.245 20.7235 254.641 20.8138 253.969 20.8138C252.542 20.8138 251.428 20.3991 250.626 19.5697C249.825 18.7346 249.425 17.6174 249.425 16.2181C249.425 15.2702 249.608 14.4323 249.975 13.7044C250.341 12.9766 250.872 12.4151 251.566 12.0202C252.26 11.6196 253.089 11.4193 254.054 11.4193C254.652 11.4193 255.199 11.5067 255.696 11.6816C256.198 11.8566 256.621 12.0822 256.966 12.3587C257.315 12.6352 257.581 12.9314 257.761 13.2474C257.947 13.5577 258.04 13.8483 258.04 14.1191C258.04 14.3956 257.936 14.6298 257.727 14.8216C257.524 15.0135 257.276 15.1094 256.982 15.1094C256.791 15.1094 256.63 15.0614 256.5 14.9655C256.376 14.8639 256.235 14.7031 256.077 14.4831C255.795 14.0543 255.499 13.7326 255.188 13.5182C254.883 13.3038 254.494 13.1966 254.02 13.1966C253.337 13.1966 252.787 13.4646 252.37 14.0007C251.952 14.531 251.744 15.2589 251.744 16.1842C251.744 16.6187 251.797 17.0193 251.904 17.3861C252.012 17.7472 252.167 18.0575 252.37 18.3171C252.573 18.571 252.818 18.7656 253.106 18.901C253.394 19.0308 253.71 19.0957 254.054 19.0957C254.517 19.0957 254.912 18.9885 255.239 18.7741C255.572 18.5597 255.865 18.2324 256.119 17.7923C256.26 17.5328 256.413 17.3296 256.576 17.1829C256.74 17.0362 256.94 16.9629 257.177 16.9629C257.459 16.9629 257.693 17.0701 257.88 17.2845C258.066 17.4989 258.159 17.7274 258.159 17.9701Z" fill="white"/>
<path d="M274.104 16.8952C274.104 17.6456 273.91 18.3199 273.52 18.918C273.137 19.5161 272.572 19.9844 271.828 20.3229C271.083 20.6615 270.2 20.8307 269.178 20.8307C267.954 20.8307 266.944 20.5994 266.148 20.1367C265.584 19.8038 265.124 19.3609 264.769 18.8079C264.419 18.2493 264.244 17.7077 264.244 17.1829C264.244 16.8783 264.349 16.6187 264.557 16.4043C264.772 16.1842 265.043 16.0742 265.37 16.0742C265.635 16.0742 265.858 16.1589 266.038 16.3281C266.225 16.4974 266.383 16.7485 266.512 17.0814C266.67 17.4763 266.84 17.8064 267.02 18.0716C267.206 18.3368 267.466 18.5569 267.799 18.7318C268.132 18.901 268.569 18.9857 269.111 18.9857C269.855 18.9857 270.459 18.8136 270.922 18.4694C271.39 18.1196 271.624 17.6851 271.624 17.166C271.624 16.7541 271.497 16.4212 271.244 16.1673C270.995 15.9078 270.671 15.7103 270.27 15.5749C269.875 15.4395 269.345 15.2956 268.679 15.1432C267.788 14.9345 267.04 14.6918 266.436 14.4154C265.838 14.1332 265.361 13.7524 265.006 13.2728C264.656 12.7875 264.481 12.1866 264.481 11.4701C264.481 10.7873 264.667 10.1808 265.04 9.65039C265.412 9.12001 265.951 8.71376 266.656 8.43164C267.362 8.14388 268.191 8 269.145 8C269.906 8 270.564 8.09592 271.117 8.28776C271.675 8.47396 272.138 8.72504 272.505 9.04102C272.871 9.35135 273.139 9.6786 273.309 10.0228C273.478 10.367 273.563 10.7027 273.563 11.0299C273.563 11.329 273.455 11.5998 273.241 11.8424C273.032 12.0794 272.77 12.1979 272.454 12.1979C272.166 12.1979 271.946 12.1274 271.794 11.9863C271.647 11.8396 271.486 11.6026 271.311 11.2754C271.086 10.8071 270.815 10.4431 270.499 10.1836C270.183 9.9184 269.675 9.78581 268.975 9.78581C268.326 9.78581 267.802 9.92969 267.401 10.2174C267.006 10.4996 266.809 10.8409 266.809 11.2415C266.809 11.4898 266.876 11.7042 267.012 11.8848C267.147 12.0653 267.333 12.2205 267.57 12.3503C267.807 12.48 268.047 12.5816 268.29 12.6549C268.532 12.7283 268.933 12.8355 269.492 12.9766C270.191 13.1402 270.823 13.3207 271.387 13.5182C271.957 13.7157 272.44 13.9555 272.835 14.2376C273.235 14.5197 273.546 14.878 273.766 15.3125C273.991 15.7413 274.104 16.2689 274.104 16.8952Z" fill="white"/>
<path d="M284.726 16.1335C284.726 16.8218 284.619 17.4566 284.404 18.0378C284.19 18.6189 283.88 19.1183 283.473 19.5358C283.067 19.9533 282.582 20.275 282.018 20.5007C281.453 20.7207 280.819 20.8307 280.113 20.8307C279.414 20.8307 278.785 20.7179 278.226 20.4922C277.667 20.2665 277.182 19.9449 276.77 19.5273C276.364 19.1042 276.054 18.6076 275.839 18.0378C275.63 17.4622 275.526 16.8275 275.526 16.1335C275.526 15.4338 275.633 14.7934 275.848 14.2122C276.062 13.6311 276.37 13.1345 276.77 12.7227C277.171 12.3108 277.656 11.9948 278.226 11.7747C278.796 11.549 279.425 11.4362 280.113 11.4362C280.813 11.4362 281.448 11.549 282.018 11.7747C282.587 12.0004 283.076 12.322 283.482 12.7396C283.888 13.1571 284.196 13.6536 284.404 14.2292C284.619 14.8047 284.726 15.4395 284.726 16.1335ZM282.407 16.1335C282.407 15.1912 282.198 14.4577 281.781 13.9329C281.369 13.4082 280.813 13.1458 280.113 13.1458C279.662 13.1458 279.264 13.2643 278.92 13.5013C278.576 13.7326 278.311 14.0768 278.124 14.5339C277.938 14.9909 277.845 15.5241 277.845 16.1335C277.845 16.7372 277.935 17.2648 278.116 17.7161C278.302 18.1675 278.564 18.5145 278.903 18.7572C279.247 18.9941 279.651 19.1126 280.113 19.1126C280.813 19.1126 281.369 18.8503 281.781 18.3255C282.198 17.7951 282.407 17.0645 282.407 16.1335Z" fill="white"/>
<path d="M294.84 17.9701C294.84 18.2578 294.752 18.5653 294.578 18.8926C294.408 19.2198 294.146 19.533 293.79 19.832C293.441 20.1254 292.998 20.3624 292.462 20.543C291.926 20.7235 291.322 20.8138 290.65 20.8138C289.223 20.8138 288.109 20.3991 287.307 19.5697C286.506 18.7346 286.105 17.6174 286.105 16.2181C286.105 15.2702 286.289 14.4323 286.656 13.7044C287.022 12.9766 287.553 12.4151 288.247 12.0202C288.941 11.6196 289.77 11.4193 290.735 11.4193C291.333 11.4193 291.88 11.5067 292.377 11.6816C292.879 11.8566 293.302 12.0822 293.647 12.3587C293.996 12.6352 294.262 12.9314 294.442 13.2474C294.628 13.5577 294.721 13.8483 294.721 14.1191C294.721 14.3956 294.617 14.6298 294.408 14.8216C294.205 15.0135 293.957 15.1094 293.663 15.1094C293.472 15.1094 293.311 15.0614 293.181 14.9655C293.057 14.8639 292.916 14.7031 292.758 14.4831C292.476 14.0543 292.179 13.7326 291.869 13.5182C291.564 13.3038 291.175 13.1966 290.701 13.1966C290.018 13.1966 289.468 13.4646 289.051 14.0007C288.633 14.531 288.425 15.2589 288.425 16.1842C288.425 16.6187 288.478 17.0193 288.585 17.3861C288.693 17.7472 288.848 18.0575 289.051 18.3171C289.254 18.571 289.499 18.7656 289.787 18.901C290.075 19.0308 290.391 19.0957 290.735 19.0957C291.198 19.0957 291.593 18.9885 291.92 18.7741C292.253 18.5597 292.546 18.2324 292.8 17.7923C292.941 17.5328 293.094 17.3296 293.257 17.1829C293.421 17.0362 293.621 16.9629 293.858 16.9629C294.14 16.9629 294.374 17.0701 294.561 17.2845C294.747 17.4989 294.84 17.7274 294.84 17.9701Z" fill="white"/>
<path d="M299.173 12.748V19.4258C299.173 19.8885 299.063 20.2383 298.843 20.4753C298.623 20.7122 298.344 20.8307 298.005 20.8307C297.667 20.8307 297.39 20.7094 297.176 20.4668C296.967 20.2242 296.863 19.8772 296.863 19.4258V12.8158C296.863 12.3587 296.967 12.0145 297.176 11.7832C297.39 11.5519 297.667 11.4362 298.005 11.4362C298.344 11.4362 298.623 11.5519 298.843 11.7832C299.063 12.0145 299.173 12.3362 299.173 12.748ZM298.031 10.3613C297.709 10.3613 297.433 10.2626 297.201 10.0651C296.976 9.86762 296.863 9.58832 296.863 9.22721C296.863 8.89996 296.978 8.63194 297.21 8.42318C297.447 8.20877 297.72 8.10156 298.031 8.10156C298.33 8.10156 298.595 8.19748 298.826 8.38932C299.058 8.58116 299.173 8.86046 299.173 9.22721C299.173 9.58268 299.06 9.86198 298.835 10.0651C298.609 10.2626 298.341 10.3613 298.031 10.3613Z" fill="white"/>
<path d="M308.018 16.7005H303.498C303.504 17.2253 303.608 17.6879 303.811 18.0885C304.02 18.4891 304.294 18.791 304.632 18.9941C304.976 19.1973 305.354 19.2988 305.766 19.2988C306.043 19.2988 306.294 19.2678 306.52 19.2057C306.751 19.138 306.974 19.0365 307.188 18.901C307.403 18.76 307.6 18.6105 307.781 18.4525C307.961 18.2945 308.195 18.0801 308.483 17.8092C308.602 17.7077 308.771 17.6569 308.991 17.6569C309.228 17.6569 309.42 17.7218 309.566 17.8516C309.713 17.9813 309.786 18.1647 309.786 18.4017C309.786 18.6105 309.705 18.8559 309.541 19.138C309.377 19.4145 309.129 19.6825 308.796 19.9421C308.469 20.196 308.054 20.4076 307.552 20.5768C307.056 20.7461 306.483 20.8307 305.834 20.8307C304.35 20.8307 303.196 20.4076 302.372 19.5612C301.549 18.7148 301.137 17.5666 301.137 16.1165C301.137 15.4338 301.238 14.8019 301.441 14.2207C301.645 13.6339 301.941 13.1317 302.33 12.7142C302.719 12.2967 303.199 11.9779 303.769 11.7578C304.339 11.5321 304.971 11.4193 305.665 11.4193C306.568 11.4193 307.341 11.6111 307.984 11.9948C308.633 12.3728 309.118 12.8637 309.439 13.4674C309.761 14.0712 309.922 14.6862 309.922 15.3125C309.922 15.8937 309.755 16.2717 309.423 16.4466C309.09 16.6159 308.621 16.7005 308.018 16.7005ZM303.498 15.3887H307.688C307.631 14.5987 307.417 14.0091 307.044 13.6198C306.678 13.2248 306.192 13.0273 305.589 13.0273C305.013 13.0273 304.539 13.2276 304.167 13.6283C303.8 14.0232 303.577 14.61 303.498 15.3887Z" fill="white"/>
<path d="M312.004 11.6393H312.258V10.2513C312.258 9.87891 312.266 9.58832 312.283 9.37956C312.306 9.16515 312.362 8.98177 312.452 8.82943C312.543 8.67144 312.673 8.54449 312.842 8.44857C313.011 8.34701 313.2 8.29622 313.409 8.29622C313.702 8.29622 313.967 8.40625 314.204 8.6263C314.362 8.773 314.461 8.95356 314.501 9.16797C314.546 9.37674 314.568 9.67578 314.568 10.0651V11.6393H315.415C315.742 11.6393 315.99 11.7183 316.16 11.8763C316.334 12.0286 316.422 12.2261 316.422 12.4688C316.422 12.7791 316.298 12.9963 316.05 13.1204C315.807 13.2446 315.457 13.3066 315 13.3066H314.568V17.5553C314.568 17.9164 314.58 18.1957 314.602 18.3932C314.63 18.5851 314.698 18.7431 314.805 18.8672C314.918 18.9857 315.099 19.0449 315.347 19.0449C315.482 19.0449 315.666 19.0224 315.897 18.9772C316.128 18.9264 316.309 18.901 316.439 18.901C316.625 18.901 316.791 18.9772 316.938 19.1296C317.091 19.2763 317.167 19.4596 317.167 19.6797C317.167 20.0521 316.964 20.337 316.557 20.5345C316.151 20.732 315.567 20.8307 314.805 20.8307C314.083 20.8307 313.536 20.7094 313.163 20.4668C312.791 20.2242 312.546 19.8885 312.427 19.4596C312.314 19.0308 312.258 18.4581 312.258 17.7415V13.3066H311.953C311.62 13.3066 311.366 13.2276 311.191 13.0697C311.017 12.9117 310.929 12.7114 310.929 12.4688C310.929 12.2261 311.019 12.0286 311.2 11.8763C311.386 11.7183 311.654 11.6393 312.004 11.6393Z" fill="white"/>
<path d="M320.154 21.1185L320.366 20.6022L317.522 13.4421C317.347 13.0302 317.26 12.7311 317.26 12.5449C317.26 12.3474 317.311 12.1641 317.412 11.9948C317.514 11.8255 317.652 11.6901 317.827 11.5885C318.007 11.487 318.194 11.4362 318.385 11.4362C318.718 11.4362 318.969 11.5434 319.139 11.7578C319.308 11.9666 319.457 12.2684 319.587 12.6634L321.542 18.3509L323.396 13.0612C323.543 12.6324 323.675 12.2967 323.794 12.054C323.912 11.8114 324.036 11.6478 324.166 11.5632C324.301 11.4785 324.49 11.4362 324.733 11.4362C324.908 11.4362 325.074 11.4842 325.232 11.5801C325.396 11.6704 325.52 11.7945 325.605 11.9525C325.695 12.1105 325.74 12.2769 325.74 12.4518C325.718 12.559 325.681 12.7114 325.63 12.9089C325.579 13.1063 325.517 13.3066 325.444 13.5098L322.431 21.3978C322.171 22.0918 321.918 22.6363 321.669 23.0313C321.421 23.4262 321.091 23.7281 320.679 23.9368C320.273 24.1513 319.723 24.2585 319.029 24.2585C318.352 24.2585 317.844 24.1851 317.505 24.0384C317.167 23.8917 316.997 23.6237 316.997 23.2344C316.997 22.9692 317.076 22.7632 317.234 22.6165C317.398 22.4755 317.638 22.4049 317.954 22.4049C318.078 22.4049 318.199 22.4219 318.318 22.4557C318.464 22.4896 318.591 22.5065 318.699 22.5065C318.964 22.5065 319.173 22.467 319.325 22.388C319.477 22.309 319.613 22.1708 319.731 21.9733C319.855 21.7815 319.996 21.4965 320.154 21.1185Z" fill="white"/>
<path d="M68.5332 36.1335C68.5332 36.8218 68.426 37.4566 68.2116 38.0378C67.9972 38.6189 67.6869 39.1183 67.2806 39.5358C66.8744 39.9533 66.3891 40.275 65.8249 40.5007C65.2607 40.7207 64.6259 40.8307 63.9206 40.8307C63.221 40.8307 62.5918 40.7179 62.0332 40.4922C61.4746 40.2665 60.9894 39.9449 60.5775 39.5273C60.1713 39.1042 59.8609 38.6076 59.6465 38.0378C59.4378 37.4622 59.3334 36.8275 59.3334 36.1335C59.3334 35.4338 59.4406 34.7934 59.655 34.2122C59.8694 33.6311 60.1769 33.1345 60.5775 32.7227C60.9781 32.3108 61.4634 31.9948 62.0332 31.7747C62.6031 31.549 63.2322 31.4362 63.9206 31.4362C64.6203 31.4362 65.255 31.549 65.8249 31.7747C66.3948 32.0004 66.8829 32.322 67.2891 32.7396C67.6954 33.1571 68.0029 33.6536 68.2116 34.2292C68.426 34.8047 68.5332 35.4395 68.5332 36.1335ZM66.2142 36.1335C66.2142 35.1912 66.0055 34.4577 65.5879 33.9329C65.176 33.4082 64.6203 33.1458 63.9206 33.1458C63.4692 33.1458 63.0714 33.2643 62.7273 33.5013C62.3831 33.7326 62.1179 34.0768 61.9317 34.5339C61.7455 34.9909 61.6524 35.5241 61.6524 36.1335C61.6524 36.7372 61.7427 37.2648 61.9232 37.7161C62.1094 38.1675 62.3718 38.5145 62.7103 38.7572C63.0545 38.9941 63.4579 39.1126 63.9206 39.1126C64.6203 39.1126 65.176 38.8503 65.5879 38.3255C66.0055 37.7951 66.2142 37.0645 66.2142 36.1335Z" fill="white"/>
<path d="M70.1752 31.6393H70.7253V30.9453C70.7253 30.2231 70.8156 29.6504 70.9961 29.2272C71.1823 28.7984 71.4927 28.4881 71.9271 28.2962C72.3672 28.0987 72.9681 28 73.7299 28C75.0784 28 75.7526 28.3301 75.7526 28.9902C75.7526 29.2046 75.6821 29.388 75.5411 29.5404C75.4 29.6927 75.2335 29.7689 75.0417 29.7689C74.9514 29.7689 74.7963 29.752 74.5762 29.7181C74.3562 29.6842 74.17 29.6673 74.0176 29.6673C73.6001 29.6673 73.3321 29.7915 73.2136 30.0397C73.0951 30.2823 73.0358 30.6322 73.0358 31.0892V31.6393H73.6029C74.4831 31.6393 74.9232 31.9045 74.9232 32.4349C74.9232 32.8129 74.8047 33.0527 74.5677 33.1543C74.3364 33.2559 74.0148 33.3066 73.6029 33.3066H73.0358V39.4258C73.0358 39.8828 72.9258 40.2326 72.7058 40.4753C72.4914 40.7122 72.2121 40.8307 71.8679 40.8307C71.5406 40.8307 71.267 40.7122 71.0469 40.4753C70.8325 40.2326 70.7253 39.8828 70.7253 39.4258V33.3066H70.0905C69.7464 33.3066 69.4812 33.2305 69.295 33.0781C69.1088 32.9201 69.0157 32.717 69.0157 32.4688C69.0157 31.9158 69.4022 31.6393 70.1752 31.6393Z" fill="white"/>
<path d="M87.8724 40.6191H84.0808C83.5335 40.6191 83.1413 40.4978 82.9043 40.2552C82.673 40.0069 82.5573 39.6148 82.5573 39.0788V29.752C82.5573 29.2046 82.6758 28.8125 82.9128 28.5755C83.1554 28.3329 83.5447 28.2116 84.0808 28.2116H88.101C88.6934 28.2116 89.2069 28.2483 89.6413 28.3216C90.0758 28.395 90.4651 28.536 90.8093 28.7448C91.1027 28.9197 91.3622 29.1426 91.5879 29.4134C91.8136 29.6786 91.9857 29.9748 92.1042 30.3021C92.2227 30.6237 92.2819 30.9651 92.2819 31.3262C92.2819 32.5675 91.6613 33.4759 90.42 34.0514C92.0506 34.5705 92.8659 35.5805 92.8659 37.0814C92.8659 37.7754 92.6882 38.4017 92.3327 38.9603C91.9773 39.5132 91.4977 39.9223 90.8939 40.1875C90.5159 40.3455 90.0814 40.4583 89.5905 40.526C89.0996 40.5881 88.5269 40.6191 87.8724 40.6191ZM87.6862 35.1094H85.071V38.7318H87.7709C89.4692 38.7318 90.3184 38.1196 90.3184 36.8952C90.3184 36.2689 90.0983 35.8147 89.6582 35.5326C89.2181 35.2504 88.5608 35.1094 87.6862 35.1094ZM85.071 30.099V33.3066H87.3731C87.9994 33.3066 88.4818 33.2474 88.8204 33.1289C89.1645 33.0104 89.4269 32.7847 89.6075 32.4518C89.7485 32.2148 89.819 31.9497 89.819 31.6563C89.819 31.0299 89.5962 30.6152 89.1504 30.4121C88.7047 30.2033 88.0248 30.099 87.1107 30.099H85.071Z" fill="white"/>
<path d="M100.729 39.5273C100.17 39.9618 99.6283 40.2891 99.1036 40.5091C98.5845 40.7235 98.0005 40.8307 97.3516 40.8307C96.7592 40.8307 96.2372 40.7151 95.7858 40.4837C95.3401 40.2467 94.9959 39.928 94.7533 39.5273C94.5107 39.1267 94.3894 38.6923 94.3894 38.224C94.3894 37.592 94.5897 37.0532 94.9903 36.6074C95.3909 36.1617 95.941 35.8626 96.6407 35.7103C96.7874 35.6764 97.1513 35.6003 97.7325 35.4818C98.3136 35.3633 98.8102 35.2561 99.222 35.1602C99.6396 35.0586 100.091 34.9373 100.576 34.7962C100.548 34.1868 100.424 33.7411 100.204 33.459C99.9894 33.1712 99.5408 33.0273 98.8581 33.0273C98.2713 33.0273 97.8284 33.1092 97.5293 33.2728C97.2359 33.4364 96.982 33.6819 96.7676 34.0091C96.5588 34.3364 96.4093 34.5536 96.319 34.6608C96.2344 34.7624 96.0482 34.8132 95.7605 34.8132C95.5009 34.8132 95.2752 34.7313 95.0834 34.5677C94.8972 34.3984 94.8041 34.184 94.8041 33.9245C94.8041 33.5182 94.948 33.1233 95.2357 32.7396C95.5235 32.3559 95.972 32.0399 96.5814 31.7917C97.1908 31.5434 97.9497 31.4193 98.8581 31.4193C99.8737 31.4193 100.672 31.5406 101.253 31.7832C101.834 32.0202 102.244 32.3982 102.481 32.9173C102.723 33.4364 102.844 34.1248 102.844 34.9824C102.844 35.5241 102.842 35.9839 102.836 36.362C102.836 36.74 102.833 37.1604 102.828 37.623C102.828 38.0575 102.898 38.5117 103.039 38.9857C103.186 39.454 103.259 39.7559 103.259 39.8913C103.259 40.1283 103.146 40.3455 102.921 40.543C102.701 40.7348 102.449 40.8307 102.167 40.8307C101.93 40.8307 101.696 40.7207 101.465 40.5007C101.234 40.275 100.988 39.9505 100.729 39.5273ZM100.576 36.1842C100.238 36.3084 99.744 36.441 99.0951 36.582C98.4519 36.7174 98.0061 36.819 97.7579 36.8867C97.5096 36.9488 97.2726 37.0757 97.0469 37.2676C96.8212 37.4538 96.7084 37.7161 96.7084 38.0547C96.7084 38.4045 96.841 38.7036 97.1062 38.9518C97.3713 39.1944 97.7184 39.3158 98.1472 39.3158C98.6042 39.3158 99.0246 39.217 99.4082 39.0195C99.7976 38.8164 100.083 38.5569 100.263 38.2409C100.472 37.8911 100.576 37.3155 100.576 36.5143V36.1842Z" fill="white"/>
<path d="M107.296 32.7142V32.9935C107.703 32.4575 108.145 32.0653 108.625 31.8171C109.11 31.5632 109.666 31.4362 110.292 31.4362C110.902 31.4362 111.446 31.5688 111.926 31.834C112.405 32.0992 112.764 32.4744 113.001 32.9596C113.153 33.2418 113.252 33.5464 113.297 33.8737C113.342 34.201 113.365 34.6185 113.365 35.1263V39.4258C113.365 39.8885 113.257 40.2383 113.043 40.4753C112.834 40.7122 112.561 40.8307 112.222 40.8307C111.878 40.8307 111.599 40.7094 111.384 40.4668C111.17 40.2242 111.063 39.8772 111.063 39.4258V35.5749C111.063 34.8132 110.955 34.232 110.741 33.8314C110.532 33.4251 110.112 33.222 109.48 33.222C109.068 33.222 108.693 33.3461 108.354 33.5944C108.016 33.837 107.767 34.1727 107.609 34.6016C107.497 34.9457 107.44 35.589 107.44 36.5313V39.4258C107.44 39.8941 107.33 40.2467 107.11 40.4837C106.896 40.7151 106.616 40.8307 106.272 40.8307C105.939 40.8307 105.666 40.7094 105.451 40.4668C105.237 40.2242 105.13 39.8772 105.13 39.4258V32.748C105.13 32.3079 105.226 31.9807 105.417 31.7663C105.609 31.5462 105.872 31.4362 106.204 31.4362C106.408 31.4362 106.591 31.4842 106.755 31.5801C106.918 31.676 107.048 31.8199 107.144 32.0117C107.245 32.2036 107.296 32.4377 107.296 32.7142Z" fill="white"/>
<path d="M124.173 33.1289V39.8405C124.173 40.6079 124.091 41.268 123.927 41.821C123.763 42.3739 123.501 42.8309 123.14 43.1921C122.779 43.5532 122.305 43.8212 121.718 43.9961C121.137 44.171 120.412 44.2585 119.543 44.2585C118.747 44.2585 118.036 44.1456 117.41 43.9199C116.784 43.6999 116.301 43.4121 115.963 43.0566C115.624 42.7068 115.455 42.3457 115.455 41.9733C115.455 41.6912 115.551 41.4599 115.743 41.2793C115.935 41.1044 116.166 41.0169 116.437 41.0169C116.775 41.0169 117.072 41.1665 117.326 41.4655C117.45 41.6178 117.577 41.7702 117.706 41.9225C117.842 42.0805 117.989 42.2131 118.147 42.3203C118.31 42.4332 118.505 42.515 118.731 42.5658C118.956 42.6222 119.216 42.6504 119.509 42.6504C120.107 42.6504 120.57 42.5658 120.897 42.3965C121.23 42.2329 121.461 42.0015 121.591 41.7025C121.727 41.4034 121.806 41.0818 121.828 40.7376C121.851 40.3991 121.868 39.8518 121.879 39.0957C121.523 39.5922 121.112 39.9703 120.643 40.2298C120.181 40.4894 119.628 40.6191 118.984 40.6191C118.211 40.6191 117.534 40.4217 116.953 40.0267C116.378 39.6317 115.935 39.0788 115.624 38.3678C115.314 37.6569 115.159 36.8359 115.159 35.9049C115.159 35.2109 115.252 34.5846 115.438 34.026C115.63 33.4674 115.901 32.9963 116.251 32.6126C116.601 32.229 117.004 31.9412 117.461 31.7493C117.918 31.5519 118.42 31.4531 118.967 31.4531C119.622 31.4531 120.189 31.5801 120.669 31.834C121.148 32.0822 121.594 32.4744 122.006 33.0104V32.6973C122.006 32.2967 122.105 31.9863 122.302 31.7663C122.5 31.5462 122.754 31.4362 123.064 31.4362C123.51 31.4362 123.806 31.5829 123.953 31.8763C124.099 32.1641 124.173 32.5816 124.173 33.1289ZM117.478 36.0573C117.478 36.9939 117.681 37.702 118.087 38.1816C118.499 38.6612 119.03 38.901 119.678 38.901C120.062 38.901 120.423 38.7995 120.762 38.5964C121.106 38.3876 121.385 38.0773 121.6 37.6654C121.814 37.2478 121.921 36.7428 121.921 36.1504C121.921 35.2081 121.712 34.4746 121.295 33.9499C120.883 33.4251 120.339 33.1628 119.661 33.1628C119.001 33.1628 118.471 33.4138 118.07 33.916C117.675 34.4182 117.478 35.1319 117.478 36.0573Z" fill="white"/>
<path d="M126.272 39.4258V29.4049C126.272 28.9423 126.373 28.5924 126.576 28.3555C126.785 28.1185 127.064 28 127.414 28C127.764 28 128.046 28.1185 128.26 28.3555C128.475 28.5868 128.582 28.9366 128.582 29.4049V39.4258C128.582 39.8941 128.472 40.2467 128.252 40.4837C128.038 40.7151 127.758 40.8307 127.414 40.8307C127.076 40.8307 126.799 40.7094 126.585 40.4668C126.376 40.2242 126.272 39.8772 126.272 39.4258Z" fill="white"/>
<path d="M136.817 39.5273C136.258 39.9618 135.717 40.2891 135.192 40.5091C134.673 40.7235 134.089 40.8307 133.44 40.8307C132.848 40.8307 132.326 40.7151 131.874 40.4837C131.429 40.2467 131.084 39.928 130.842 39.5273C130.599 39.1267 130.478 38.6923 130.478 38.224C130.478 37.592 130.678 37.0532 131.079 36.6074C131.479 36.1617 132.03 35.8626 132.729 35.7103C132.876 35.6764 133.24 35.6003 133.821 35.4818C134.402 35.3633 134.899 35.2561 135.311 35.1602C135.728 35.0586 136.18 34.9373 136.665 34.7962C136.637 34.1868 136.512 33.7411 136.292 33.459C136.078 33.1712 135.629 33.0273 134.947 33.0273C134.36 33.0273 133.917 33.1092 133.618 33.2728C133.324 33.4364 133.071 33.6819 132.856 34.0091C132.647 34.3364 132.498 34.5536 132.408 34.6608C132.323 34.7624 132.137 34.8132 131.849 34.8132C131.589 34.8132 131.364 34.7313 131.172 34.5677C130.986 34.3984 130.893 34.184 130.893 33.9245C130.893 33.5182 131.036 33.1233 131.324 32.7396C131.612 32.3559 132.061 32.0399 132.67 31.7917C133.279 31.5434 134.038 31.4193 134.947 31.4193C135.962 31.4193 136.761 31.5406 137.342 31.7832C137.923 32.0202 138.332 32.3982 138.569 32.9173C138.812 33.4364 138.933 34.1248 138.933 34.9824C138.933 35.5241 138.93 35.9839 138.925 36.362C138.925 36.74 138.922 37.1604 138.916 37.623C138.916 38.0575 138.987 38.5117 139.128 38.9857C139.274 39.454 139.348 39.7559 139.348 39.8913C139.348 40.1283 139.235 40.3455 139.009 40.543C138.789 40.7348 138.538 40.8307 138.256 40.8307C138.019 40.8307 137.785 40.7207 137.553 40.5007C137.322 40.275 137.077 39.9505 136.817 39.5273ZM136.665 36.1842C136.326 36.3084 135.833 36.441 135.184 36.582C134.54 36.7174 134.095 36.819 133.846 36.8867C133.598 36.9488 133.361 37.0757 133.135 37.2676C132.91 37.4538 132.797 37.7161 132.797 38.0547C132.797 38.4045 132.93 38.7036 133.195 38.9518C133.46 39.1944 133.807 39.3158 134.236 39.3158C134.693 39.3158 135.113 39.217 135.497 39.0195C135.886 38.8164 136.171 38.5569 136.352 38.2409C136.56 37.8911 136.665 37.3155 136.665 36.5143V36.1842Z" fill="white"/>
<path d="M147.617 39.5104V39.2819C147.306 39.6374 146.999 39.928 146.694 40.1536C146.395 40.3737 146.068 40.5401 145.712 40.653C145.362 40.7715 144.979 40.8307 144.561 40.8307C144.008 40.8307 143.495 40.7151 143.021 40.4837C142.553 40.2467 142.146 39.911 141.802 39.4766C141.458 39.0421 141.196 38.5315 141.015 37.9447C140.84 37.3579 140.753 36.7231 140.753 36.0404C140.753 34.5959 141.105 33.4703 141.811 32.6634C142.516 31.8566 143.444 31.4531 144.595 31.4531C145.261 31.4531 145.822 31.5688 146.279 31.8001C146.736 32.0258 147.182 32.3757 147.617 32.8496V29.4388C147.617 28.9648 147.71 28.6066 147.896 28.3639C148.088 28.1213 148.359 28 148.708 28C149.058 28 149.326 28.1128 149.512 28.3385C149.704 28.5586 149.8 28.8859 149.8 29.3203V39.5104C149.8 39.9505 149.699 40.2806 149.495 40.5007C149.292 40.7207 149.03 40.8307 148.708 40.8307C148.392 40.8307 148.13 40.7179 147.921 40.4922C147.718 40.2609 147.617 39.9336 147.617 39.5104ZM143.072 36.1165C143.072 36.7428 143.168 37.276 143.359 37.7161C143.557 38.1563 143.825 38.4892 144.163 38.7148C144.502 38.9349 144.872 39.0449 145.272 39.0449C145.678 39.0449 146.048 38.9405 146.381 38.7318C146.719 38.5174 146.987 38.1929 147.185 37.7585C147.388 37.3184 147.49 36.7711 147.49 36.1165C147.49 35.5015 147.388 34.974 147.185 34.5339C146.987 34.0881 146.717 33.7496 146.372 33.5182C146.034 33.2813 145.661 33.1628 145.255 33.1628C144.832 33.1628 144.454 33.2841 144.121 33.5267C143.788 33.7637 143.529 34.1079 143.342 34.5592C143.162 35.005 143.072 35.5241 143.072 36.1165Z" fill="white"/>
<path d="M158.568 36.7005H154.049C154.055 37.2253 154.159 37.6879 154.362 38.0885C154.571 38.4892 154.844 38.791 155.183 38.9941C155.527 39.1973 155.905 39.2988 156.317 39.2988C156.594 39.2988 156.845 39.2678 157.07 39.2057C157.302 39.138 157.525 39.0365 157.739 38.901C157.953 38.76 158.151 38.6105 158.331 38.4525C158.512 38.2945 158.746 38.0801 159.034 37.8092C159.152 37.7077 159.322 37.6569 159.542 37.6569C159.779 37.6569 159.971 37.7218 160.117 37.8516C160.264 37.9813 160.337 38.1647 160.337 38.4017C160.337 38.6105 160.255 38.8559 160.092 39.138C159.928 39.4145 159.68 39.6825 159.347 39.9421C159.02 40.196 158.605 40.4076 158.103 40.5768C157.606 40.7461 157.034 40.8307 156.385 40.8307C154.901 40.8307 153.747 40.4076 152.923 39.5612C152.099 38.7148 151.688 37.5666 151.688 36.1165C151.688 35.4338 151.789 34.8019 151.992 34.2207C152.195 33.6339 152.492 33.1317 152.881 32.7142C153.27 32.2967 153.75 31.9779 154.32 31.7578C154.89 31.5321 155.522 31.4193 156.216 31.4193C157.118 31.4193 157.891 31.6111 158.535 31.9948C159.183 32.3728 159.669 32.8637 159.99 33.4674C160.312 34.0712 160.473 34.6862 160.473 35.3125C160.473 35.8937 160.306 36.2717 159.973 36.4466C159.64 36.6159 159.172 36.7005 158.568 36.7005ZM154.049 35.3887H158.238C158.182 34.5987 157.967 34.0091 157.595 33.6198C157.228 33.2248 156.743 33.0273 156.139 33.0273C155.564 33.0273 155.09 33.2276 154.717 33.6283C154.351 34.0232 154.128 34.61 154.049 35.3887Z" fill="white"/>
<path d="M169.867 37.8092C169.867 38.4468 169.712 38.9941 169.402 39.4512C169.091 39.9026 168.632 40.2467 168.022 40.4837C167.418 40.7151 166.682 40.8307 165.813 40.8307C164.984 40.8307 164.273 40.7038 163.68 40.4499C163.088 40.196 162.651 39.88 162.369 39.502C162.086 39.1183 161.945 38.7346 161.945 38.3509C161.945 38.097 162.036 37.8798 162.216 37.6992C162.397 37.5187 162.625 37.4284 162.902 37.4284C163.144 37.4284 163.331 37.4876 163.46 37.6061C163.59 37.7246 163.714 37.8911 163.833 38.1055C164.07 38.5174 164.352 38.8249 164.679 39.028C165.012 39.2311 165.463 39.3327 166.033 39.3327C166.496 39.3327 166.874 39.2311 167.167 39.028C167.466 38.8192 167.616 38.5822 167.616 38.3171C167.616 37.9108 167.461 37.6146 167.15 37.4284C166.846 37.2422 166.341 37.0645 165.635 36.8952C164.84 36.6977 164.191 36.4918 163.689 36.2773C163.192 36.0573 162.795 35.7695 162.495 35.4141C162.196 35.0586 162.047 34.6213 162.047 34.1022C162.047 33.6395 162.185 33.2023 162.462 32.7904C162.738 32.3785 163.144 32.0512 163.68 31.8086C164.222 31.5603 164.874 31.4362 165.635 31.4362C166.234 31.4362 166.77 31.4983 167.244 31.6224C167.723 31.7465 168.121 31.913 168.437 32.1217C168.758 32.3305 169.001 32.5618 169.165 32.8158C169.334 33.0697 169.419 33.3179 169.419 33.5605C169.419 33.8257 169.328 34.043 169.148 34.2122C168.973 34.3815 168.722 34.4661 168.395 34.4661C168.158 34.4661 167.954 34.3984 167.785 34.263C167.622 34.1276 167.433 33.9245 167.218 33.6536C167.043 33.428 166.837 33.2474 166.6 33.112C166.363 32.9766 166.042 32.9089 165.635 32.9089C165.218 32.9089 164.871 32.9991 164.594 33.1797C164.318 33.3546 164.18 33.5747 164.18 33.8398C164.18 34.0825 164.281 34.2828 164.484 34.4408C164.688 34.5931 164.961 34.7201 165.305 34.8216C165.65 34.9232 166.124 35.0473 166.727 35.194C167.444 35.3689 168.028 35.5777 168.479 35.8203C168.936 36.0629 169.28 36.3507 169.512 36.6836C169.749 37.0109 169.867 37.3861 169.867 37.8092Z" fill="white"/>
<path d="M174.082 29.4049V32.8327C174.375 32.4941 174.66 32.2261 174.937 32.0286C175.219 31.8312 175.529 31.6845 175.868 31.5885C176.206 31.487 176.57 31.4362 176.96 31.4362C177.546 31.4362 178.066 31.5603 178.517 31.8086C178.974 32.0569 179.332 32.418 179.592 32.8919C179.755 33.1684 179.865 33.4787 179.922 33.8229C179.978 34.1615 180.007 34.5536 180.007 34.9993V39.4258C180.007 39.8885 179.899 40.2383 179.685 40.4753C179.476 40.7122 179.197 40.8307 178.847 40.8307C178.085 40.8307 177.704 40.3624 177.704 39.4258V35.5241C177.704 34.7849 177.594 34.2179 177.374 33.8229C177.154 33.4223 176.737 33.222 176.122 33.222C175.71 33.222 175.337 33.3405 175.005 33.5775C174.677 33.8088 174.432 34.1276 174.268 34.5339C174.144 34.878 174.082 35.4902 174.082 36.3704V39.4258C174.082 39.8828 173.978 40.2326 173.769 40.4753C173.566 40.7122 173.281 40.8307 172.914 40.8307C172.152 40.8307 171.772 40.3624 171.772 39.4258V29.4049C171.772 28.9366 171.87 28.5868 172.068 28.3555C172.271 28.1185 172.553 28 172.914 28C173.281 28 173.566 28.1185 173.769 28.3555C173.978 28.5924 174.082 28.9423 174.082 29.4049Z" fill="white"/>
<path d="M186.532 36.1335C186.532 35.2815 186.605 34.4859 186.752 33.7467C186.899 33.002 187.122 32.2713 187.421 31.5547C187.72 30.8325 188.089 30.1102 188.529 29.388C188.795 28.9479 189.017 28.6319 189.198 28.4401C189.379 28.2426 189.548 28.1213 189.706 28.0762C189.869 28.0254 190.078 28 190.332 28C190.609 28 190.747 28.0762 190.747 28.2285C190.747 28.2793 190.617 28.5868 190.357 29.151C190.098 29.7096 189.852 30.2964 189.621 30.9115C189.395 31.5265 189.184 32.2938 188.986 33.2135C188.795 34.1332 188.699 35.1066 188.699 36.1335C188.699 37.1491 188.795 38.1111 188.986 39.0195C189.178 39.928 189.395 40.7151 189.638 41.3809C189.886 42.0467 190.132 42.6419 190.374 43.1667C190.623 43.697 190.747 43.9848 190.747 44.0299C190.747 44.1823 190.609 44.2585 190.332 44.2585C190.073 44.2585 189.861 44.2303 189.697 44.1738C189.539 44.123 189.373 43.9989 189.198 43.8014C189.023 43.604 188.8 43.288 188.529 42.8535C188.084 42.1087 187.714 41.3893 187.421 40.6953C187.133 40.0069 186.913 39.2904 186.76 38.5456C186.608 37.8008 186.532 36.9967 186.532 36.1335Z" fill="white"/>
<path d="M197.755 35.7865H195.453V39.2988C195.453 39.801 195.334 40.1819 195.097 40.4414C194.86 40.701 194.561 40.8307 194.2 40.8307C193.822 40.8307 193.517 40.7038 193.286 40.4499C193.055 40.1903 192.939 39.8123 192.939 39.3158V29.752C192.939 29.199 193.066 28.804 193.32 28.5671C193.574 28.3301 193.977 28.2116 194.53 28.2116H197.755C198.708 28.2116 199.442 28.2849 199.955 28.4316C200.463 28.5727 200.9 28.8069 201.267 29.1341C201.639 29.4614 201.921 29.862 202.113 30.3359C202.305 30.8099 202.401 31.3431 202.401 31.9355C202.401 33.1994 202.012 34.1586 201.233 34.8132C200.454 35.462 199.295 35.7865 197.755 35.7865ZM197.145 30.099H195.453V33.8906H197.145C197.738 33.8906 198.231 33.8286 198.626 33.7044C199.027 33.5803 199.332 33.3772 199.54 33.0951C199.749 32.8129 199.854 32.4434 199.854 31.9863C199.854 31.439 199.693 30.9933 199.371 30.6491C199.01 30.2823 198.268 30.099 197.145 30.099Z" fill="white"/>
<path d="M209.959 28C211.245 28 212.349 28.2624 213.268 28.7871C214.194 29.3062 214.893 30.0482 215.367 31.013C215.841 31.9722 216.078 33.1007 216.078 34.3984C216.078 35.3576 215.948 36.2294 215.689 37.0137C215.429 37.798 215.04 38.4779 214.521 39.0534C214.002 39.6289 213.364 40.069 212.608 40.3737C211.852 40.6784 210.986 40.8307 210.01 40.8307C209.039 40.8307 208.17 40.6756 207.403 40.3652C206.636 40.0493 205.995 39.6063 205.482 39.0365C204.968 38.4666 204.579 37.781 204.314 36.9798C204.054 36.1786 203.925 35.3125 203.925 34.3815C203.925 33.428 204.06 32.5534 204.331 31.7578C204.607 30.9622 205.005 30.2852 205.524 29.7266C206.043 29.168 206.675 28.742 207.42 28.4486C208.165 28.1495 209.011 28 209.959 28ZM213.531 34.3815C213.531 33.4731 213.384 32.686 213.091 32.0202C212.797 31.3544 212.377 30.8522 211.829 30.5137C211.288 30.1695 210.664 29.9974 209.959 29.9974C209.457 29.9974 208.991 30.0933 208.563 30.2852C208.139 30.4714 207.773 30.745 207.462 31.1061C207.158 31.4672 206.915 31.9299 206.734 32.4941C206.559 33.0527 206.472 33.6819 206.472 34.3815C206.472 35.0868 206.559 35.7244 206.734 36.2943C206.915 36.8642 207.166 37.3381 207.488 37.7161C207.815 38.0885 208.187 38.3678 208.605 38.554C209.028 38.7402 209.491 38.8333 209.993 38.8333C210.636 38.8333 211.226 38.6725 211.762 38.3509C212.303 38.0293 212.732 37.5328 213.048 36.8613C213.37 36.1899 213.531 35.3633 213.531 34.3815Z" fill="white"/>
<path d="M227.656 36.8952C227.656 37.6456 227.462 38.3199 227.072 38.918C226.689 39.5161 226.124 39.9844 225.38 40.3229C224.635 40.6615 223.752 40.8307 222.73 40.8307C221.506 40.8307 220.496 40.5994 219.701 40.1367C219.136 39.8038 218.676 39.3609 218.321 38.8079C217.971 38.2493 217.796 37.7077 217.796 37.1829C217.796 36.8783 217.901 36.6187 218.109 36.4043C218.324 36.1842 218.595 36.0742 218.922 36.0742C219.187 36.0742 219.41 36.1589 219.591 36.3281C219.777 36.4974 219.935 36.7485 220.064 37.0814C220.222 37.4763 220.392 37.8064 220.572 38.0716C220.758 38.3368 221.018 38.5569 221.351 38.7318C221.684 38.901 222.121 38.9857 222.663 38.9857C223.408 38.9857 224.011 38.8136 224.474 38.4694C224.942 38.1196 225.176 37.6851 225.176 37.166C225.176 36.7541 225.05 36.4212 224.796 36.1673C224.547 35.9078 224.223 35.7103 223.822 35.5749C223.427 35.4395 222.897 35.2956 222.231 35.1432C221.34 34.9345 220.592 34.6918 219.988 34.4154C219.39 34.1332 218.913 33.7524 218.558 33.2728C218.208 32.7875 218.033 32.1866 218.033 31.4701C218.033 30.7873 218.219 30.1808 218.592 29.6504C218.964 29.12 219.503 28.7138 220.208 28.4316C220.914 28.1439 221.743 28 222.697 28C223.458 28 224.116 28.0959 224.669 28.2878C225.227 28.474 225.69 28.725 226.057 29.041C226.423 29.3513 226.691 29.6786 226.861 30.0228C227.03 30.367 227.115 30.7027 227.115 31.0299C227.115 31.329 227.007 31.5998 226.793 31.8424C226.584 32.0794 226.322 32.1979 226.006 32.1979C225.718 32.1979 225.498 32.1274 225.346 31.9863C225.199 31.8396 225.038 31.6026 224.863 31.2754C224.638 30.8071 224.367 30.4431 224.051 30.1836C223.735 29.9184 223.227 29.7858 222.527 29.7858C221.879 29.7858 221.354 29.9297 220.953 30.2174C220.558 30.4996 220.361 30.8409 220.361 31.2415C220.361 31.4898 220.428 31.7042 220.564 31.8848C220.699 32.0653 220.885 32.2205 221.122 32.3503C221.359 32.48 221.599 32.5816 221.842 32.6549C222.084 32.7283 222.485 32.8355 223.044 32.9766C223.743 33.1402 224.375 33.3207 224.939 33.5182C225.509 33.7157 225.992 33.9555 226.387 34.2376C226.787 34.5197 227.098 34.878 227.318 35.3125C227.543 35.7413 227.656 36.2689 227.656 36.8952Z" fill="white"/>
<path d="M235.087 40.6191H231.296C230.748 40.6191 230.356 40.4978 230.119 40.2552C229.888 40.0069 229.772 39.6148 229.772 39.0788V29.752C229.772 29.2046 229.891 28.8125 230.128 28.5755C230.37 28.3329 230.76 28.2116 231.296 28.2116H235.316C235.908 28.2116 236.422 28.2483 236.856 28.3216C237.291 28.395 237.68 28.536 238.024 28.7448C238.318 28.9197 238.577 29.1426 238.803 29.4134C239.028 29.6786 239.201 29.9748 239.319 30.3021C239.438 30.6237 239.497 30.9651 239.497 31.3262C239.497 32.5675 238.876 33.4759 237.635 34.0514C239.265 34.5705 240.081 35.5805 240.081 37.0814C240.081 37.7754 239.903 38.4017 239.548 38.9603C239.192 39.5132 238.712 39.9223 238.109 40.1875C237.731 40.3455 237.296 40.4583 236.805 40.526C236.314 40.5881 235.742 40.6191 235.087 40.6191ZM234.901 35.1094H232.286V38.7318H234.986C236.684 38.7318 237.533 38.1196 237.533 36.8952C237.533 36.2689 237.313 35.8147 236.873 35.5326C236.433 35.2504 235.776 35.1094 234.901 35.1094ZM232.286 30.099V33.3066H234.588C235.214 33.3066 235.697 33.2474 236.035 33.1289C236.379 33.0104 236.642 32.7847 236.822 32.4518C236.963 32.2148 237.034 31.9497 237.034 31.6563C237.034 31.0299 236.811 30.6152 236.365 30.4121C235.92 30.2033 235.24 30.099 234.326 30.099H232.286Z" fill="white"/>
<path d="M245.971 36.1335C245.971 37.3748 245.805 38.5286 245.472 39.5951C245.145 40.6615 244.645 41.7476 243.974 42.8535C243.596 43.4742 243.297 43.8635 243.077 44.0215C242.857 44.1795 242.558 44.2585 242.18 44.2585C241.898 44.2585 241.757 44.1823 241.757 44.0299C241.757 43.9792 241.875 43.7055 242.112 43.209C242.349 42.7181 242.594 42.1313 242.848 41.4486C243.108 40.7658 243.331 39.9646 243.517 39.0449C243.709 38.1196 243.805 37.1491 243.805 36.1335C243.805 35.1122 243.709 34.1389 243.517 33.2135C243.325 32.2882 243.102 31.487 242.848 30.8099C242.594 30.1328 242.349 29.546 242.112 29.0495C241.875 28.5473 241.757 28.2737 241.757 28.2285C241.757 28.0762 241.898 28 242.18 28C242.575 28 242.879 28.0762 243.094 28.2285C243.308 28.3752 243.602 28.7617 243.974 29.388C244.307 29.941 244.597 30.4855 244.846 31.0215C245.094 31.5575 245.3 32.0935 245.464 32.6296C245.633 33.1656 245.76 33.7242 245.844 34.3053C245.929 34.8865 245.971 35.4959 245.971 36.1335Z" fill="white"/>
<path d="M7.98429 3.11667L7.48257 2.67766L7.46603 2.69657L7.45096 2.71667L7.98429 3.11667ZM22.14 45.6885C21.9035 45.9707 21.9406 46.3912 22.2228 46.6277C22.505 46.8641 22.9255 46.827 23.162 46.5448L22.14 45.6885ZM27.4557 12.5881C27.7161 12.3277 27.7161 11.9056 27.4557 11.6453C27.1954 11.3849 26.7732 11.3849 26.5129 11.6453L27.4557 12.5881ZM40.651 9.70734L41.1492 9.26443L41.0922 9.20026L41.0208 9.15264L40.651 9.70734ZM17.8831 33.4083L29.5498 29.075L29.0855 27.8251L17.4188 32.1584L17.8831 33.4083ZM19.3176 24.1167V45.7833H20.651V24.1167H19.3176ZM25.8618 19.8175C22.0441 18.545 16.2053 16.2368 12.0808 13.283C10.0122 11.8015 8.45215 10.2113 7.74755 8.57673C7.06949 7.00371 7.15578 5.33246 8.51762 3.51667L7.45096 2.71667C5.81281 4.90087 5.64909 7.07685 6.52312 9.10452C7.37061 11.0706 9.16469 12.8346 11.3045 14.367C15.5966 17.4409 21.5911 19.7994 25.4401 21.0825L25.8618 19.8175ZM8.48601 3.55567C9.34179 2.57764 11.4058 1.97326 14.4039 4.12495C17.411 6.28305 21.1843 11.1448 25.0326 20.6991L26.2693 20.2009C22.3842 10.5552 18.4909 5.41695 15.1813 3.04171C11.8628 0.660068 8.96013 0.989028 7.48257 2.67766L8.48601 3.55567ZM17.9843 36.1167H29.9843V34.7833H17.9843V36.1167ZM23.162 46.5448C26.6855 42.3393 32.2948 31.1464 26.2351 20.1287L25.0668 20.7713C30.7404 31.0869 25.5053 41.6718 22.14 45.6885L23.162 46.5448ZM26.2637 20.1874C25.8315 19.179 25.7369 17.6524 25.9761 16.1373C26.2168 14.6134 26.767 13.2768 27.4557 12.5881L26.5129 11.6453C25.535 12.6232 24.9185 14.2866 24.6591 15.9294C24.3983 17.5809 24.4704 19.3877 25.0382 20.7126L26.2637 20.1874ZM26.2637 20.7126C27.2347 18.4469 29.4369 14.8417 32.1092 12.3129C33.4451 11.0487 34.8557 10.0947 36.2471 9.68118C37.6104 9.27605 38.964 9.38394 40.2812 10.262L41.0208 9.15264C39.3379 8.03074 37.5666 7.89812 35.8673 8.40308C34.1962 8.89968 32.6068 10.0063 31.1927 11.3444C28.3651 14.0203 26.0672 17.7864 25.0382 20.1874L26.2637 20.7126ZM40.1527 10.1502C40.7241 10.7931 41.0819 11.6215 41.0906 12.508C41.0992 13.385 40.7668 14.3737 39.8619 15.3507C38.0239 17.335 33.8266 19.2545 25.608 19.7847L25.6939 21.1153C34.0087 20.5788 38.6447 18.627 40.8401 16.2567C41.9518 15.0564 42.4361 13.7468 42.4239 12.495C42.4117 11.2527 41.9111 10.1216 41.1492 9.26443L40.1527 10.1502Z" fill="white"/>
<path d="M14.0872 43.269V44.3315H15.7083C15.94 44.3315 16.1158 44.3862 16.2356 44.4956C16.3554 44.605 16.4153 44.743 16.4153 44.9097C16.4153 45.0841 16.3567 45.2248 16.2395 45.3315C16.1197 45.4383 15.9452 45.4917 15.7161 45.4917H11.302C11.0468 45.4917 10.8645 45.4331 10.7551 45.3159C10.6458 45.1987 10.5911 45.0125 10.5911 44.7573V43.269C10.5911 42.8289 10.6249 42.4904 10.6926 42.2534C10.7577 42.019 10.8658 41.8172 11.0168 41.6479C11.1679 41.4761 11.3528 41.3459 11.5715 41.2573C11.7903 41.1688 12.0364 41.1245 12.3098 41.1245C12.8931 41.1245 13.3359 41.3042 13.6379 41.6636C13.9374 42.0229 14.0872 42.5581 14.0872 43.269ZM11.4622 43.5503V44.3315H13.2122V43.5503C13.2122 43.2769 13.1835 43.049 13.1262 42.8667C13.0689 42.6818 12.9752 42.5412 12.845 42.4448C12.7148 42.3485 12.5442 42.3003 12.3333 42.3003C12.0806 42.3003 11.8749 42.3745 11.7161 42.5229C11.5468 42.6896 11.4622 43.0321 11.4622 43.5503Z" fill="white"/>
<path d="M10.4934 37.6362C10.4934 37.0425 10.6145 36.5334 10.8567 36.1089C11.0963 35.6818 11.4387 35.3589 11.884 35.1401C12.3267 34.9214 12.8476 34.812 13.4465 34.812C13.8892 34.812 14.2916 34.8719 14.6536 34.9917C15.0155 35.1115 15.3293 35.2912 15.595 35.5308C15.8606 35.7703 16.0637 36.0646 16.2043 36.4136C16.345 36.7625 16.4153 37.1623 16.4153 37.6128C16.4153 38.0607 16.3437 38.4618 16.2004 38.8159C16.0546 39.1701 15.8502 39.4657 15.5872 39.7026C15.3241 39.9396 15.0077 40.1193 14.6379 40.2417C14.2681 40.3615 13.8684 40.4214 13.4387 40.4214C12.9986 40.4214 12.595 40.3589 12.2278 40.2339C11.8606 40.1063 11.5481 39.9227 11.2903 39.6831C11.0325 39.4435 10.8359 39.1519 10.7004 38.8081C10.5624 38.4644 10.4934 38.0737 10.4934 37.6362ZM13.4387 35.9878C13.0194 35.9878 12.6562 36.0555 12.3489 36.1909C12.0416 36.3263 11.8098 36.5203 11.6536 36.7729C11.4947 37.0229 11.4153 37.3107 11.4153 37.6362C11.4153 37.868 11.4596 38.0828 11.5481 38.2808C11.634 38.4761 11.7603 38.6453 11.927 38.7886C12.0937 38.9292 12.3072 39.0412 12.5676 39.1245C12.8254 39.2052 13.1158 39.2456 13.4387 39.2456C13.7642 39.2456 14.0585 39.2052 14.3215 39.1245C14.5846 39.0412 14.8033 38.9253 14.9778 38.7769C15.1497 38.6258 15.2786 38.4539 15.3645 38.2612C15.4504 38.0659 15.4934 37.8524 15.4934 37.6206C15.4934 37.3237 15.4192 37.0516 15.2708 36.8042C15.1223 36.5542 14.8931 36.3563 14.5833 36.2104C14.2734 36.062 13.8918 35.9878 13.4387 35.9878Z" fill="white"/>
<path d="M14.5989 29.4683C14.9452 29.4683 15.2564 29.5581 15.5325 29.7378C15.8085 29.9149 16.0247 30.1753 16.1809 30.519C16.3372 30.8628 16.4153 31.2703 16.4153 31.7417C16.4153 32.3068 16.3085 32.7729 16.095 33.1401C15.9413 33.4006 15.7369 33.6128 15.4817 33.7769C15.2239 33.9383 14.9739 34.019 14.7317 34.019C14.5911 34.019 14.4713 33.9709 14.3723 33.8745C14.2708 33.7756 14.22 33.6506 14.22 33.4995C14.22 33.3771 14.259 33.2743 14.3372 33.1909C14.4153 33.105 14.5312 33.0321 14.6848 32.9722C14.8671 32.8993 15.0195 32.8211 15.1418 32.7378C15.2642 32.6519 15.3658 32.5321 15.4465 32.3784C15.5247 32.2248 15.5637 32.0229 15.5637 31.7729C15.5637 31.4292 15.4843 31.1506 15.3254 30.937C15.164 30.7209 14.9635 30.6128 14.7239 30.6128C14.5338 30.6128 14.3801 30.6714 14.2629 30.7886C14.1431 30.9032 14.052 31.0529 13.9895 31.2378C13.927 31.4201 13.8606 31.6649 13.7903 31.9722C13.6939 32.3836 13.5819 32.7287 13.4543 33.0073C13.3241 33.2834 13.1484 33.5034 12.927 33.6675C12.703 33.8289 12.4257 33.9097 12.095 33.9097C11.7799 33.9097 11.4999 33.8237 11.2551 33.6519C11.0103 33.48 10.8228 33.2313 10.6926 32.9058C10.5598 32.5802 10.4934 32.1974 10.4934 31.7573C10.4934 31.4058 10.5377 31.1024 10.6262 30.8472C10.7122 30.5894 10.828 30.3758 10.9739 30.2065C11.1171 30.0373 11.2681 29.9136 11.427 29.8354C11.5859 29.7573 11.7408 29.7183 11.8918 29.7183C12.0299 29.7183 12.1549 29.7677 12.2668 29.8667C12.3762 29.9631 12.4309 30.0841 12.4309 30.23C12.4309 30.3628 12.3984 30.4644 12.3333 30.5347C12.2655 30.6024 12.1562 30.6766 12.0051 30.7573C11.789 30.8615 11.621 30.9865 11.5012 31.1323C11.3788 31.2782 11.3176 31.5125 11.3176 31.8354C11.3176 32.1349 11.384 32.3771 11.5168 32.562C11.6471 32.7443 11.8046 32.8354 11.9895 32.8354C12.1041 32.8354 12.203 32.8042 12.2864 32.7417C12.3697 32.6792 12.4413 32.5933 12.5012 32.4839C12.5611 32.3745 12.608 32.2638 12.6418 32.1519C12.6757 32.0399 12.7252 31.855 12.7903 31.5972C12.8658 31.2743 12.9491 30.9826 13.0403 30.7222C13.1314 30.4591 13.2421 30.2365 13.3723 30.0542C13.5025 29.8693 13.6679 29.7261 13.8684 29.6245C14.0663 29.5203 14.3098 29.4683 14.5989 29.4683Z" fill="white"/>
<path d="M16.3176 26.0386V27.7886C16.3176 28.0412 16.2616 28.2222 16.1497 28.3315C16.0351 28.4383 15.8541 28.4917 15.6067 28.4917H11.302C11.0494 28.4917 10.8684 28.437 10.759 28.3276C10.6471 28.2157 10.5911 28.036 10.5911 27.7886V25.9331C10.5911 25.6597 10.608 25.4227 10.6418 25.2222C10.6757 25.0216 10.7408 24.842 10.8372 24.6831C10.9179 24.5477 11.0208 24.4279 11.1458 24.3237C11.2681 24.2196 11.4049 24.1401 11.5559 24.0854C11.7043 24.0308 11.8619 24.0034 12.0286 24.0034C12.6015 24.0034 13.0208 24.2899 13.2864 24.8628C13.526 24.1102 13.9921 23.7339 14.6848 23.7339C15.0051 23.7339 15.2942 23.8159 15.552 23.98C15.8072 24.144 15.996 24.3654 16.1184 24.644C16.1913 24.8185 16.2434 25.019 16.2747 25.2456C16.3033 25.4722 16.3176 25.7365 16.3176 26.0386ZM13.7747 26.1245V27.3315H15.4465V26.0854C15.4465 25.3016 15.164 24.9097 14.5989 24.9097C14.3098 24.9097 14.1002 25.0112 13.97 25.2144C13.8398 25.4175 13.7747 25.7209 13.7747 26.1245ZM11.4622 27.3315H12.9426V26.269C12.9426 25.98 12.9153 25.7573 12.8606 25.6011C12.8059 25.4422 12.7017 25.3211 12.5481 25.2378C12.4387 25.1727 12.3163 25.1401 12.1809 25.1401C11.8918 25.1401 11.7004 25.243 11.6067 25.4487C11.5103 25.6545 11.4622 25.9683 11.4622 26.3901V27.3315Z" fill="white"/>
</svg>
